<html>
<head>
<meta charset="UTF-8">
<meta name="viewport" content="width=device-width, initial-scale=1.0"/>

<style>
.comment
{
    padding-left: 20px;
    margin-top: 4px;
    margin-right: 4px;
    margin-bottom: 4px;
    border: 2px #000 solid;
}
.submission
{
    border: 4px #00f solid;
    padding-left: 20px;
}
.hidden
{
    display: none;
}
</style>
</head>
<body><div class="submission" id="t3_6jeg8h">
    <p class="userinfo">
        <a href="https://www.reddit.com/u/V2atX">V2atX</a>
        <span class="score"> | 40 points</span>
        <span class="timestamp"> | Jun 25 2017 13:59:35</span>
    </p>
    <strong>[MOVIE] Assassin's Creed 2016 [1080p] [x264] [3.57GB]</strong>
    <p><p><a href="http://www.imdb.com/title/tt2094766/">Assassin's Creed</a></p>
<p>Video is a CRF20 encode.</p>
<p>Subs for the Spanish parts are burned in, soft subs for the english parts included as well (<a href="http://i.imgur.com/Egyd5vb.jpg">example</a>)</p>
<p>Links protected by captcha: http://links.snahp.it/642Aguilar</p>
<p>Mirror on 1fichier included! Register a free account for faster downloading.<br>
I suggest using <a href="https://board.jdownloader.org/showthread.php?t=54725">JDownloader 2 for easier downloading.</a> (Copy + paste the link inside, as the redirect is broken.)</p>
<p>Complete MediaInfo:</p>
<pre><code>General
Unique ID                                : 214408199449911656600038702514632458820 (0xA14D8464E0B9A7CCB7E42CB0C7F50244)
Complete name                            : Assassin's Creed (2016).mkv
Format                                   : Matroska
Format version                           : Version 4 / Version 2
File size                                : 3.57 GiB
Duration                                 : 1 h 55 min
Overall bit rate                         : 4 426 kb/s
Encoded date                             : UTC 2017-04-13 19:00:03
Writing application                      : mkvmerge v10.0.0 ('To Drown In You') 64bit
Writing library                          : libebml v1.3.4 + libmatroska v1.4.5

Video
ID                                       : 1
Format                                   : AVC
Format/Info                              : Advanced Video Codec
Format profile                           : High@L4.1
Format settings, CABAC                   : Yes
Format settings, ReFrames                : 5 frames
Codec ID                                 : V_MPEG4/ISO/AVC
Duration                                 : 1 h 55 min
Bit rate                                 : 2 914 kb/s
Width                                    : 1 920 pixels
Height                                   : 804 pixels
Display aspect ratio                     : 2.40:1
Frame rate mode                          : Constant
Frame rate                               : 23.976 (24000/1001) FPS
Color space                              : YUV
Chroma subsampling                       : 4:2:0
Bit depth                                : 8 bits
Scan type                                : Progressive
Bits/(Pixel*Frame)                       : 0.079
Stream size                              : 2.35 GiB (66%)
Writing library                          : x264 core 142 r2479 dd79a61
Encoding settings                        : cabac=1 / ref=5 / deblock=1:-1:-1 / analyse=0x3:0x133 / me=umh / subme=10 / psy=1 / psy_rd=1.00:0.15 / mixed_ref=1 / me_range=24 / chroma_me=1 / trellis=2 / 8x8dct=1 / cqm=0 / deadzone=21,11 / fast_pskip=1 / chroma_qp_offset=-3 / threads=12 / lookahead_threads=2 / sliced_threads=0 / nr=0 / decimate=1 / interlaced=0 / bluray_compat=0 / constrained_intra=0 / bframes=8 / b_pyramid=2 / b_adapt=2 / b_bias=0 / direct=3 / weightb=1 / open_gop=0 / weightp=2 / keyint=240 / keyint_min=24 / scenecut=40 / intra_refresh=0 / rc_lookahead=60 / rc=crf / mbtree=1 / crf=20.0 / qcomp=0.60 / qpmin=0 / qpmax=69 / qpstep=4 / vbv_maxrate=62500 / vbv_bufsize=78125 / crf_max=0.0 / nal_hrd=none / filler=0 / ip_ratio=1.40 / aq=1:1.00
Default                                  : Yes
Forced                                   : No
Color range                              : Limited
Color primaries                          : BT.709
Transfer characteristics                 : BT.709
Matrix coefficients                      : BT.709

Audio
ID                                       : 2
Format                                   : DTS
Format/Info                              : Digital Theater Systems
Mode                                     : 16
Format settings, Endianness              : Big
Codec ID                                 : A_DTS
Duration                                 : 1 h 55 min
Bit rate mode                            : Constant
Bit rate                                 : 1 509 kb/s
Channel(s)                               : 6 channels
Channel positions                        : Front: L C R, Side: L R, LFE
Sampling rate                            : 48.0 kHz
Frame rate                               : 93.750 FPS (512 spf)
Bit depth                                : 24 bits
Compression mode                         : Lossy
Stream size                              : 1.22 GiB (34%)
Language                                 : English
Default                                  : Yes
Forced                                   : No

Text
ID                                       : 3
Format                                   : UTF-8
Codec ID                                 : S_TEXT/UTF8
Codec ID/Info                            : UTF-8 Plain Text
Duration                                 : 1 h 33 min
Bit rate                                 : 21 b/s
Count of elements                        : 505
Stream size                              : 14.5 KiB (0%)
Language                                 : English
Default                                  : Yes
Forced                                   : No

Menu
00:00:00.000                             : :Chapter 1
00:06:04.255                             : :Chapter 2
00:09:32.797                             : :Chapter 3
00:12:47.617                             : :Chapter 4
00:16:47.815                             : :Chapter 5
00:21:07.533                             : :Chapter 6
00:26:56.548                             : :Chapter 7
00:31:55.180                             : :Chapter 8
00:38:06.384                             : :Chapter 9
00:41:43.267                             : :Chapter 10
00:46:33.140                             : :Chapter 11
00:50:10.357                             : :Chapter 12
00:53:04.490                             : :Chapter 13
00:56:17.724                             : :Chapter 14
00:59:26.580                             : :Chapter 15
01:02:32.682                             : :Chapter 16
01:06:37.135                             : :Chapter 17
01:13:08.859                             : :Chapter 18
01:18:45.988                             : :Chapter 19
01:23:01.201                             : :Chapter 20
01:30:18.096                             : :Chapter 21
01:34:18.294                             : :Chapter 22
01:37:45.293                             : :Chapter 23
01:40:51.103                             : :Chapter 24
</code></pre></p>
    <p class="toolbar">
        <a href="https://www.reddit.com/r/megalinks/comments/6jeg8h">permalink</a>
    </p>
</div>
<div class="comment" id="t1_djdlysf">
    <p class="userinfo">
        <a
        class="toggle_hide_button"
        href="javascript:void(0)"
        onclick="toggle_collapse(this.parentElement.parentElement)">[-]
        </a>
        <a href="https://www.reddit.com/u/boltrop">boltrop</a>
        <span class="score"> | 1 points</span>
        <span class="timestamp"> | Jun 25 2017 14:03:07</span>
    </p>
    <div class="collapsible">
        <h3><a href="https://images-na.ssl-images-amazon.com/images/M/MV5BNzE1OTczNTc1OF5BMl5BanBnXkFtZTgwMzgyMDI3MDI@._V1_.jpg">Assassin's Creed</a> (2016)</h3>
<p><strong>Genre</strong>: Action, Adventure, Drama, Fantasy, Sci-Fi</p>
<p><strong>Rating</strong>:  5.9 (119793 votes)</p>
<p><strong>Certification</strong>: PG-13</p>
<p><strong>Runtime</strong>: 115 min</p>
<hr>
<blockquote>
<p><strong>Director(s)</strong>: <a href="https://www.imdb.com/name/nm2355933/">Justin Kurzel</a></p>
<p><strong>Writer(s)</strong>: <a href="https://www.imdb.com/name/nm2078681/">Michael Lesslie</a>, <a href="https://www.imdb.com/name/nm0177836/">Adam Cooper</a></p>
<p><strong>Cast</strong>: <a href="https://www.imdb.com/name/nm1055413/">Michael Fassbender</a>, <a href="https://www.imdb.com/name/nm0182839/">Marion Cotillard</a>, <a href="https://www.imdb.com/name/nm0000460/">Jeremy Irons</a>, <a href="https://www.imdb.com/name/nm0322407/">Brendan Gleeson</a></p>
<p><strong>Plot</strong>: When Callum Lynch explores the memories of his ancestor Aguilar and gains the skills of a Master Assassin, he discovers he is a descendant of the secret Assassins society.</p>
</blockquote>
<hr>
<p>^This ^summary ^is ^taken ^from <a href="https://www.imdb.com/title/tt2094766/">^imdb.com</a> ^| ^For ^feedback ^or ^suggestions ^contact <a href="http://www.reddit.com/message/compose/?to=indigo6alpha">^/u/indigo6alpha</a></p>
        <p class="toolbar">
            <a href="https://www.reddit.com/r/megalinks/comments/6jeg8h/_/djdlysf">permalink</a>
        </p>
        
    </div>
</div>

<div class="comment" id="t1_djdm03a">
    <p class="userinfo">
        <a
        class="toggle_hide_button"
        href="javascript:void(0)"
        onclick="toggle_collapse(this.parentElement.parentElement)">[-]
        </a>
        <a href="https://www.reddit.com/u/SubZorro">SubZorro</a>
        <span class="score"> | 1 points</span>
        <span class="timestamp"> | Jun 25 2017 14:04:05</span>
    </p>
    <div class="collapsible">
        <h5>Subtitles for this movie:</h5>
<hr>
<blockquote>
<ul>
<li>
<p><strong>Assassin's.Creed.2016.1080p.BluRay.x264-[YTS.AG]</strong> - <code>1 CD</code> - <a href="http://dl.opensubtitles.org/en/download/vrf-6d89cb1a/sub/6930409">Download Subtitle</a></p>
</li>
<li>
<p><strong>Assassin's Creed (2016) (Color HI)</strong> - <code>1 CD</code> - <a href="http://dl.opensubtitles.org/en/download/vrf-7a4447ba/sub/6929580">Download Subtitle</a></p>
</li>
<li>
<p><strong>Assassin's Creed  HD 1920x1080p ISO (hdclub.org)</strong> - <code>1 CD</code> - <a href="http://dl.opensubtitles.org/en/download/vrf-bb5e246a/sub/6920809">Download Subtitle</a></p>
</li>
<li>
<p><strong>Assassin's Creed 2016 HDCAM NAKRO</strong> - <code>1 CD</code> - <a href="http://dl.opensubtitles.org/en/download/vrf-09b0ce29/sub/6838899">Download Subtitle</a></p>
</li>
</ul>
</blockquote>
<hr>
<p>^This ^list ^of ^subtitles ^are ^taken ^from <a href="http://www.opensubtitles.org">^opensubtitles.org</a> ^| ^For ^feedback ^or ^suggestions ^contact <a href="http://www.reddit.com/message/compose/?to=indigo6alpha">^/u/indigo6alpha</a></p>
        <p class="toolbar">
            <a href="https://www.reddit.com/r/megalinks/comments/6jeg8h/_/djdm03a">permalink</a>
        </p>
        
    </div>
</div>
</body>

<script>
function toggle_collapse(comment_div)
{
    var button = comment_div.getElementsByClassName("toggle_hide_button")[0];
    var collapsible = comment_div.getElementsByClassName("collapsible")[0];
    if (collapsible.classList.contains("hidden"))
    {
        collapsible.classList.remove("hidden");
        button.innerText = "[-]";
    }
    else
    {
        collapsible.classList.add("hidden");
        button.innerText = "[+]";
    }
}
</script>
</html>
